<?xml version="1.0" encoding="utf-8"?>
<!-- Generator: Adobe Illustrator 22.0.1, SVG Export Plug-In . SVG Version: 6.00 Build 0)  -->
<svg version="1.1" id="圖層_1" xmlns="http://www.w3.org/2000/svg" xmlns:xlink="http://www.w3.org/1999/xlink" x="0px" y="0px"
	 viewBox="0 0 100 100" style="enable-background:new 0 0 100 100;" xml:space="preserve">
<style type="text/css">
	.st0{fill:#E0F3FC;}
	.st1{fill:#8ECCED;}
	.st2{fill:#3E8ED6;}
</style>
<g>
	<path class="st0" d="M100.2,16.8c0,22.1,0,44.3,0,66.4c-0.4,0.4-0.2,0.9-0.3,1.4c-0.8,4.1-2.7,7.5-5.7,10.4c-3.4,3.2-7.5,5-12.1,5
		c-21.2,0.1-42.5,0-63.7,0c-0.9,0-1.8-0.1-2.7-0.3C11.5,98.9,8.1,97,5.2,94c-3.2-3.4-5-7.5-5-12.1C0.1,61,0.2,40,0.2,19.1
		c0-0.9,0-1.8,0.2-2.7c1-7.7,6.5-14,14.1-15.8C15.3,0.3,16.1,0.2,17,0c22.1,0,44.3,0,66.4,0c0.1,0.1,0.3,0.2,0.4,0.2
		c7.4,0.8,14,6.6,15.8,13.9C99.8,15,100,15.9,100.2,16.8z M52.3,58.3c0,4.3,0,8.5,0,12.8c0,2.4,1.5,3.9,3.9,3.9c5,0,10,0,15,0
		c2.4,0,3.9-1.5,3.9-4c0-8.5,0-16.9,0-25.4c0-2.4-1.5-4-3.9-4c-5,0-10,0-15,0c-2.3,0-4,1.7-3.9,3.9C52.4,49.8,52.3,54.1,52.3,58.3z
		 M58.6,25c-4.3,0-8.6,0-12.9,0c-2.2,0-3.8,1.5-3.9,3.8c0,1.7,0,3.3,0,5c0.1,2.2,1.6,3.7,3.9,3.7c8.5,0,17.1,0,25.6,0
		c2.4,0,3.9-1.5,3.9-3.9c0-1.6,0-3.1,0-4.7c0-2.4-1.5-3.9-3.9-3.9C67,25,62.8,25,58.6,25z M36.6,56.2c2.6,0,5.3,0,7.9,0
		c2,0,3.5-1.6,3.5-3.5c0-2.4-0.1-4.8,0-7.2c0.1-2.3-1.7-3.9-3.8-3.9c-5.1,0-10.1,0-15.2,0c-2.3,0-3.8,1.7-3.8,3.9c0,2.3,0,4.6,0,6.8
		c0,2.4,1.5,3.9,3.8,3.9C31.5,56.2,34.1,56.2,36.6,56.2z M36.6,75c2.6,0,5.3,0,7.9,0c2.1,0,3.6-1.5,3.6-3.6c0-2.4-0.1-4.8,0-7.1
		c0.1-2.4-1.8-3.9-3.8-3.9c-5.1,0-10.2,0-15.3,0c-2.2,0-3.8,1.7-3.8,3.9c0,2.3,0,4.6,0,6.9S26.7,75,29,75C31.5,75,34,75,36.6,75z
		 M31.4,25c-3.5,0-6.2,2.8-6.2,6.3s2.8,6.2,6.3,6.2s6.2-2.8,6.2-6.3C37.7,27.8,34.9,25,31.4,25z"/>
	<path class="st1" d="M52.3,58.3c0-4.3,0.1-8.5,0-12.8c0-2.2,1.6-3.9,3.9-3.9c5,0,10,0,15,0c2.4,0,3.9,1.6,3.9,4
		c0,8.5,0,16.9,0,25.4c0,2.5-1.5,4-3.9,4c-5,0-10,0-15,0c-2.4,0-3.9-1.5-3.9-3.9C52.3,66.9,52.3,62.6,52.3,58.3z"/>
	<path class="st2" d="M58.6,25c4.2,0,8.5,0,12.7,0c2.4,0,3.9,1.5,3.9,3.9c0,1.6,0,3.1,0,4.7c0,2.4-1.5,3.9-3.9,3.9
		c-8.5,0-17.1,0-25.6,0c-2.3,0-3.8-1.5-3.9-3.7c0-1.7,0-3.3,0-5c0.1-2.2,1.6-3.8,3.9-3.8C50,25,54.3,25,58.6,25z"/>
	<path class="st1" d="M36.6,56.2c-2.5,0-5.1,0-7.6,0c-2.3,0-3.8-1.5-3.8-3.9c0-2.3,0-4.6,0-6.8c0-2.3,1.5-3.9,3.8-3.9
		c5.1,0,10.1,0,15.2,0c2.1,0,4,1.6,3.8,3.9c-0.1,2.4,0,4.8,0,7.2c0,2-1.5,3.5-3.5,3.5C41.9,56.3,39.2,56.2,36.6,56.2z"/>
	<path class="st1" d="M36.6,75c-2.5,0-5.1,0-7.6,0c-2.3,0-3.8-1.5-3.8-3.8s0-4.6,0-6.9c0-2.2,1.5-3.9,3.8-3.9c5.1,0,10.2,0,15.3,0
		c2,0,3.9,1.5,3.8,3.9c-0.1,2.4,0,4.7,0,7.1c0,2-1.5,3.6-3.6,3.6C41.8,75,39.2,75,36.6,75z"/>
	<path class="st1" d="M31.4,25c3.5,0,6.3,2.8,6.3,6.2c0,3.5-2.8,6.3-6.2,6.3c-3.5,0-6.3-2.8-6.3-6.2C25.2,27.8,27.9,25,31.4,25z"/>
</g>
</svg>
